<?xml version="1.0" encoding="UTF-8"?>
<svg version="1.1" viewBox="0 0 2048 2048" width="2048" height="2048" xmlns="http://www.w3.org/2000/svg">
<path transform="translate(0)" d="m0 0h2048v2048h-2048z" fill="#FEFFFE"/>
<path transform="translate(334,334)" d="m0 0h29l25 2 36 6 30 7 37 12 29 12 29 14 24 14 24 16 16 12 16 13 11 9 7 7 8 7 15 15 7 8 13 15 13 17 13 18 12 19 12 21 9 17 13 30 10 27 9 31 7 34 5 36 1 14 3-34 6-35 8-32 12-36 13-30 8-16 10-19 12-19 10-15 12-16 8-10 12-14 7-8 12-13 5-5h2v-2l8-7 14-13 28-22 27-18 15-9 24-13 21-10 28-11 30-10 33-8 36-6 27-2h489v461l-875 1 30 4 31 6 26 7 27 9 29 12 32 16 20 12 22 15 16 12 10 8 13 11 13 12 27 27 9 11 12 14 14 19 18 27 14 26 14 28 9 24 10 30 7 27 6 29 4 28 2 26v478h-460v-919h-460z"/>
</svg>
